<svg id="Layer_2" data-name="Layer 2" xmlns="http://www.w3.org/2000/svg" xmlns:xlink="http://www.w3.org/1999/xlink" viewBox="0 0 303.7737 329.7543"><defs><style>.cls-1{fill:none;}.cls-2{fill:url(#linear-gradient);}.cls-3{fill:url(#linear-gradient-2);}.cls-4{fill:url(#linear-gradient-3);}</style><linearGradient id="linear-gradient" x1="159.9434" y1="400.1909" x2="90.7362" y2="5.4005" gradientUnits="userSpaceOnUse"><stop offset="0.3731" stop-color="#fff"/><stop offset="0.3932" stop-color="#d9d9d9"/><stop offset="0.4363" stop-color="#8d8d8d"/><stop offset="0.4749" stop-color="#505050"/><stop offset="0.5074" stop-color="#252525"/><stop offset="0.5326" stop-color="#0a0a0a"/><stop offset="0.5475"/></linearGradient><linearGradient id="linear-gradient-2" x1="31.7176" y1="39.3228" x2="212.2368" y2="370.1489" gradientUnits="userSpaceOnUse"><stop offset="0.113" stop-color="#fff"/><stop offset="0.1715" stop-color="#d9d9d9"/><stop offset="0.2975" stop-color="#8d8d8d"/><stop offset="0.41" stop-color="#505050"/><stop offset="0.5049" stop-color="#252525"/><stop offset="0.5785" stop-color="#0a0a0a"/><stop offset="0.6219"/></linearGradient><linearGradient id="linear-gradient-3" x1="307.5487" y1="111.9883" x2="131.3096" y2="395.4816" gradientUnits="userSpaceOnUse"><stop offset="0.1492" stop-color="#fff"/><stop offset="0.2194" stop-color="#d9d9d9"/><stop offset="0.3706" stop-color="#8d8d8d"/><stop offset="0.5056" stop-color="#505050"/><stop offset="0.6195" stop-color="#252525"/><stop offset="0.7078" stop-color="#0a0a0a"/><stop offset="0.7598"/></linearGradient></defs><path class="cls-1" d="M286.3712,274.2c4.4966-.148,8.9636-.4289,13.3715-.8579q-3.4835-6.5453-7.47-12.8094l8.4312,12.7058.636.9615Z"/><path class="cls-1" d="M286.3712,274.2c-2.1744.0739-4.3635.1035-6.5526.1035s-4.3635-.03-6.5379-.1035Z"/><path class="cls-1" d="M191.4394,166.1632c-1.8786,3.5351-3.8754,6.9964-5.9611,10.3984a204.0826,204.0826,0,0,1-39.8631,47.1109,203.5311,203.5311,0,0,1-37.4521-43.8271A202.6162,202.6162,0,0,1,151.34,168.2636a205.1455,205.1455,0,0,1,30.7811-2.3075Q186.8023,165.9561,191.4394,166.1632Z"/><path class="cls-2" d="M273.2807,274.2H2.4335c.1332-.2662.2811-.5178.4142-.7692q1.5753-2.951,3.2394-5.813l13.83-20.856a203.6585,203.6585,0,0,1,88.246-66.9167,203.5311,203.5311,0,0,0,37.4521,43.8271A202.4049,202.4049,0,0,0,273.2807,274.2Z"/><path class="cls-3" d="M208.23,133.7384c-3.8458,12.3361-10.785,21.2128-16.79,32.4248-3.0915-.1331-3.2375-.2071-6.3586-.2071A205.1455,205.1455,0,0,0,154.3,168.2636a202.6162,202.6162,0,0,0-43.1764,11.5818c-35.2777,13.7855-68.724,37.1562-91.2071,66.9167l52.1724-74.2386,20.2348-30.5148L154.492,48.2305l51.8415,82.4906Z"/><path class="cls-4" d="M206.26,130.7671l27.7636,41.89L287.51,253.33a1.2468,1.2468,0,0,0,.1183.1775l4.6446,7.026q3.9714,6.2568,7.47,12.8094c-4.4079.429-8.8749.71-13.3715.8579h-13.09a202.4049,202.4049,0,0,1-127.6655-50.5278s38.7376-45.1651,60.7183-92.9514Z"/><path class="cls-1" d="M244.0758,208.6006c3.04-.1,6.06-.29,9.04-.58q-2.355-4.4251-5.05-8.66l5.7,8.59.43.65Z"/><path class="cls-1" d="M284.1775,229.19c-2.11.0718-4.2333.1-6.357.1s-4.2333-.0287-6.3428-.1Z"/><path class="cls-1" d="M205.6959,128.5453c-2.5344,4.7694-5.2285,9.4391-8.0423,14.029a275.34,275.34,0,0,1-53.7815,63.56,274.5856,274.5856,0,0,1-50.5285-59.1295,273.3751,273.3751,0,0,1,58.2515-15.6256,276.7812,276.7812,0,0,1,41.5284-3.1131Q199.44,128.2659,205.6959,128.5453Z"/></svg>